<svg xmlns="http://www.w3.org/2000/svg" width="24" height="24" fill="none" viewBox="0 0 24 24" id="chat-locked"><path fill="#000" d="M1 4C1 2.34315 2.34315 1 4 1H20C21.6569 1 23 2.34315 23 4V15C23 16.6569 21.6569 18 20 18H12L7.41421 22.5858C7.149 22.851 6.78929 23 6.41421 23C5.63316 23 5 22.3668 5 21.5858V18H4C2.34315 18 1 16.6569 1 15V4Z" opacity=".4"></path><path fill="#000" fill-rule="evenodd" d="M15 9C15.5523 9 16 9.44772 16 10V13C16 13.5523 15.5523 14 15 14H9C8.44772 14 8 13.5523 8 13V10C8 9.44772 8.44772 9 9 9V8C9 6.34315 10.3431 5 12 5C13.6569 5 15 6.34315 15 8V9ZM11 8C11 7.44772 11.4477 7 12 7C12.5523 7 13 7.44772 13 8V9H11V8Z" clip-rule="evenodd"></path></svg>